<svg width="300" height="44" viewBox="0 0 300 44" fill="none" xmlns="http://www.w3.org/2000/svg">
<path d="M53.6333 34.776H70.4333V39H48.6893V5.4H53.6333V34.776ZM86.6779 13.752C88.0539 13.752 89.4459 14.024 90.8539 14.568C92.2619 15.112 93.5739 15.896 94.7899 16.92C96.0059 17.912 96.9979 19.256 97.7659 20.952C98.5339 22.648 98.9179 24.52 98.9179 26.568C98.9179 27.208 98.8699 27.816 98.7739 28.392H79.3339C79.5899 30.472 80.4539 32.12 81.9259 33.336C83.4299 34.52 85.0459 35.112 86.7739 35.112C89.2699 35.112 91.2219 34.328 92.6299 32.76L96.5659 34.92C94.0379 37.864 90.7739 39.336 86.7739 39.336C85.3979 39.336 84.0059 39.08 82.5979 38.568C81.1899 38.024 79.8459 37.256 78.5659 36.264C77.3179 35.24 76.2939 33.896 75.4939 32.232C74.7259 30.536 74.3419 28.648 74.3419 26.568C74.3419 24.52 74.7259 22.648 75.4939 20.952C76.2619 19.256 77.2539 17.912 78.4699 16.92C79.7179 15.896 81.0459 15.112 82.4539 14.568C83.8619 14.024 85.2699 13.752 86.6779 13.752ZM86.6779 17.976C84.9499 17.976 83.3659 18.552 81.9259 19.704C80.5179 20.856 79.6699 22.504 79.3819 24.648H94.0219C93.7019 22.504 92.8219 20.856 91.3819 19.704C89.9419 18.552 88.3739 17.976 86.6779 17.976ZM114.414 13.752C116.302 13.752 117.966 14.184 119.406 15.048C120.878 15.912 121.838 16.968 122.286 18.216V14.04H127.134V39H122.286V34.632C121.806 35.88 120.83 36.984 119.358 37.944C117.918 38.872 116.27 39.336 114.414 39.336C113.038 39.336 111.678 39.064 110.334 38.52C108.99 37.976 107.726 37.208 106.542 36.216C105.39 35.192 104.446 33.848 103.71 32.184C103.006 30.488 102.654 28.6 102.654 26.52C102.654 24.472 103.006 22.616 103.71 20.952C104.446 19.256 105.39 17.912 106.542 16.92C107.726 15.896 108.99 15.112 110.334 14.568C111.678 14.024 113.038 13.752 114.414 13.752ZM120.27 20.088C118.83 18.648 117.118 17.928 115.134 17.928C113.15 17.928 111.374 18.696 109.806 20.232C108.27 21.768 107.502 23.864 107.502 26.52C107.502 29.208 108.27 31.32 109.806 32.856C111.374 34.36 113.15 35.112 115.134 35.112C117.118 35.112 118.83 34.392 120.27 32.952C121.742 31.48 122.478 29.336 122.478 26.52C122.478 23.672 121.742 21.528 120.27 20.088ZM145.973 13.8C146.741 13.8 147.413 13.848 147.989 13.944V18.408C147.509 18.344 146.821 18.312 145.925 18.312C143.621 18.344 141.685 19.128 140.117 20.664C138.549 22.2 137.605 24.296 137.285 26.952V39H132.437V14.04H137.285V21.816C137.573 19.512 138.453 17.608 139.925 16.104C141.429 14.568 143.445 13.8 145.973 13.8ZM165.62 13.8C168.244 13.8 170.468 14.696 172.292 16.488C174.148 18.248 175.076 20.936 175.076 24.552V39H170.228V24.744C170.228 22.408 169.716 20.696 168.692 19.608C167.7 18.52 166.34 17.976 164.612 17.976C162.596 17.976 160.868 18.744 159.428 20.28C157.988 21.784 157.14 23.24 156.884 24.648V39H152.036V14.04H156.884V19.608C157.044 18.456 157.94 17.208 159.572 15.864C161.204 14.488 163.22 13.8 165.62 13.8ZM191.959 5.064C194.615 5.064 196.919 5.72 198.871 7.032C200.823 8.344 202.231 9.944 203.095 11.832L198.775 13.32C198.263 12.136 197.415 11.192 196.231 10.488C195.079 9.752 193.703 9.384 192.103 9.384C190.407 9.384 189.015 9.784 187.927 10.584C186.839 11.384 186.295 12.424 186.295 13.704C186.295 14.888 186.663 15.864 187.399 16.632C188.167 17.4 189.415 18.072 191.143 18.648L193.831 19.56C197.159 20.68 199.639 22.072 201.271 23.736C202.935 25.4 203.767 27.448 203.767 29.88C203.767 32.792 202.551 35.096 200.119 36.792C197.719 38.488 194.999 39.336 191.959 39.336C188.983 39.336 186.391 38.616 184.183 37.176C182.007 35.736 180.487 33.832 179.623 31.464L183.751 29.64C184.327 31.208 185.351 32.504 186.823 33.528C188.295 34.52 190.007 35.016 191.959 35.016C193.815 35.016 195.415 34.568 196.759 33.672C198.135 32.776 198.823 31.512 198.823 29.88C198.823 28.344 198.327 27.176 197.335 26.376C196.343 25.544 194.775 24.76 192.631 24.024L189.847 23.016C187.127 22.056 185.031 20.856 183.559 19.416C182.087 17.976 181.351 16.072 181.351 13.704C181.351 11.208 182.375 9.144 184.423 7.512C186.503 5.88 189.015 5.064 191.959 5.064ZM219.992 13.752C221.944 13.752 223.88 14.264 225.8 15.288C227.72 16.28 229.256 17.736 230.408 19.656L226.04 21.192C224.664 19.016 222.648 17.928 219.992 17.928C218.04 17.928 216.296 18.696 214.76 20.232C213.224 21.768 212.456 23.88 212.456 26.568C212.456 29.224 213.224 31.32 214.76 32.856C216.296 34.36 218.04 35.112 219.992 35.112C221.176 35.112 222.312 34.84 223.4 34.296C224.52 33.752 225.4 32.952 226.04 31.896L230.408 33.432C229.256 35.352 227.72 36.824 225.8 37.848C223.88 38.84 221.944 39.336 219.992 39.336C218.616 39.336 217.224 39.08 215.816 38.568C214.408 38.024 213.08 37.256 211.832 36.264C210.584 35.24 209.56 33.896 208.76 32.232C207.992 30.536 207.608 28.648 207.608 26.568C207.608 24.488 207.992 22.6 208.76 20.904C209.56 19.208 210.584 17.864 211.832 16.872C213.08 15.848 214.408 15.08 215.816 14.568C217.224 14.024 218.616 13.752 219.992 13.752ZM248.02 13.8C248.788 13.8 249.46 13.848 250.036 13.944V18.408C249.556 18.344 248.868 18.312 247.972 18.312C245.668 18.344 243.732 19.128 242.164 20.664C240.596 22.2 239.652 24.296 239.332 26.952V39H234.484V14.04H239.332V21.816C239.62 19.512 240.5 17.608 241.972 16.104C243.476 14.568 245.492 13.8 248.02 13.8ZM264.618 13.752C265.962 13.752 267.338 14.024 268.746 14.568C270.186 15.112 271.53 15.896 272.778 16.92C274.026 17.912 275.034 19.256 275.802 20.952C276.602 22.648 277.002 24.52 277.002 26.568C277.002 28.648 276.602 30.536 275.802 32.232C275.034 33.896 274.026 35.24 272.778 36.264C271.53 37.256 270.202 38.024 268.794 38.568C267.386 39.08 265.994 39.336 264.618 39.336C263.242 39.336 261.85 39.08 260.442 38.568C259.034 38.024 257.69 37.256 256.41 36.264C255.162 35.24 254.138 33.896 253.338 32.232C252.57 30.536 252.186 28.648 252.186 26.568C252.186 24.52 252.57 22.648 253.338 20.952C254.138 19.256 255.162 17.912 256.41 16.92C257.69 15.896 259.034 15.112 260.442 14.568C261.85 14.024 263.242 13.752 264.618 13.752ZM264.618 17.928C262.666 17.928 260.906 18.696 259.338 20.232C257.802 21.736 257.034 23.848 257.034 26.568C257.034 29.256 257.802 31.352 259.338 32.856C260.906 34.36 262.666 35.112 264.618 35.112C266.538 35.112 268.266 34.36 269.802 32.856C271.37 31.352 272.154 29.256 272.154 26.568C272.154 23.848 271.37 21.736 269.802 20.232C268.266 18.696 266.538 17.928 264.618 17.928ZM286.586 5.4V39H281.642V5.4H286.586ZM296.993 5.4V39H292.049V5.4H296.993Z" fill="white"/>
<rect y="2.87549" width="38" height="38" fill="#1337AE"/>
<path d="M19 8.87549L4 17.9664L9.45455 21.2694V30.3603L19 36.1482L28.5455 30.3603V21.2694L31.2727 19.6179V25.8752H34V17.9664L19 8.87549ZM28.3 17.9664L19 23.6028L9.7 17.9664L19 12.33L28.3 17.9664ZM25.8182 28.5725L19 32.6937L12.1818 28.5725V22.9209L19 27.0573L25.8182 22.9209V28.5725Z" fill="white"/>
<path d="M19 8.87549L4 17.9664L9.45455 21.2694V30.3603L19 36.1482L28.5455 30.3603V21.2694L31.2727 19.6179V25.8752H34V17.9664L19 8.87549ZM28.3 17.9664L19 23.6028L9.7 17.9664L19 12.33L28.3 17.9664ZM25.8182 28.5725L19 32.6937L12.1818 28.5725V22.9209L19 27.0573L25.8182 22.9209V28.5725Z" fill="white" fill-opacity="0.2"/>
<path d="M35.0003 10.8756L35.0005 15.4999L30.5 12.9998L19.157 6.5963L19.1571 2.00002L35.0003 10.8756Z" fill="#448FE4"/>
<path d="M4.00001 10.8752L4.00011 15.4998L8.5 12.9998L19.1575 6.59546L19.1577 1.99942L4.00001 10.8752Z" fill="#448FE4"/>
<path d="M3.49211 34.6241L3.49195 29.9998L7.99243 32.5L19.3355 38.9035L19.3353 43.4997L3.49211 34.6241Z" fill="#448FE4"/>
<path d="M34.4924 34.6245L34.4923 30L29.9924 32.5L19.3349 38.9043L19.3347 43.5003L34.4924 34.6245Z" fill="#448FE4"/>
</svg>
